<svg width="151" height="169" viewBox="0 0 151 169" fill="none" xmlns="http://www.w3.org/2000/svg">
<path d="M98 28.2738C98 39.5956 88.8218 48.7738 77.5 48.7738C66.1782 48.7738 57 39.5956 57 28.2738C57 16.9519 66.1782 7.77379 77.5 7.77379C88.8218 7.77379 98 16.9519 98 28.2738Z" fill="#555"/>
<rect x="50" y="50" width="57" height="88" fill="#555"/>
<path d="M107 52L122.588 68.5H91.4115L107 52Z" fill="#555"/>
<path d="M96 138L111.588 154.5H80.4115L96 138Z" fill="#555"/>
<path d="M50 52L65.5885 68.5H34.4115L50 52Z" fill="#555"/>
<path d="M58 138L73.5885 154.5H42.4115L58 138Z" fill="#555"/>
</svg>
