<svg width="123" height="112" viewBox="0 0 123 112" fill="none" xmlns="http://www.w3.org/2000/svg">
<ellipse cx="61.5" cy="54" rx="30.5" ry="28" fill="#33AA33"/>
<path d="M93.4376 55.3905C94.2055 54.5965 94.1844 53.3303 93.3904 52.5624L80.4522 40.0484C79.6582 39.2804 78.3921 39.3015 77.6242 40.0955C76.8562 40.8895 76.8773 42.1556 77.6713 42.9235L89.172 54.0471L78.0484 65.5478C77.2804 66.3418 77.3015 67.6079 78.0955 68.3758C78.8895 69.1438 80.1556 69.1227 80.9235 68.3287L93.4376 55.3905ZM32.0333 56.9997L92.0333 55.9997L91.9667 52.0003L31.9667 53.0003L32.0333 56.9997Z" fill="black"/>
<path d="M60.5547 86.917C61.335 87.6988 62.6014 87.7 63.3832 86.9198L76.1237 74.2044C76.9055 73.4241 76.9067 72.1578 76.1265 71.376C75.3462 70.5942 74.0798 70.5929 73.298 71.3732L61.9732 82.6757L50.6706 71.3508C49.8903 70.569 48.624 70.5678 47.8422 71.3481C47.0604 72.1283 47.0591 73.3947 47.8394 74.1765L60.5547 86.917ZM60.0296 25.4939L59.9704 85.5022L63.9704 85.5061L64.0296 25.4978L60.0296 25.4939Z" fill="black"/>
<path d="M30.5514 54.8128C29.8144 55.6356 29.8839 56.9 30.7066 57.637L44.1141 69.6469C44.9369 70.3839 46.2013 70.3144 46.9383 69.4917C47.6753 68.6689 47.6058 67.4045 46.783 66.6675L34.8652 55.992L45.5408 44.0742C46.2777 43.2515 46.2082 41.987 45.3855 41.25C44.5627 40.5131 43.2983 40.5826 42.5613 41.4053L30.5514 54.8128ZM91.8491 50.8558L31.9313 54.1503L32.1509 58.1443L92.0687 54.8497L91.8491 50.8558Z" fill="black"/>
<path d="M62.1762 23.0503C61.365 22.3006 60.0997 22.3505 59.35 23.1616L47.133 36.3808C46.3833 37.192 46.4332 38.4573 47.2444 39.207C48.0556 39.9567 49.3209 39.9069 50.0706 39.0957L60.9301 27.3453L72.6805 38.2049C73.4917 38.9545 74.757 38.9047 75.5067 38.0935C76.2564 37.2823 76.2065 36.017 75.3953 35.2673L62.1762 23.0503ZM65.1797 84.4022L62.8172 24.4404L58.8203 24.5978L61.1828 84.5596L65.1797 84.4022Z" fill="black"/>
</svg>
